{
  "meta": {
    "mode": "voice",
    "engine": "crepe",
    "input": "F:\\audio\\melody_app_industrial\\test-hu3.m4a"
  },
  "stats": {
    "raw_notes": 36.0,
    "melody_notes": 36.0,
    "polyphony_ratio": 0.0
  },
  "notes": [
    {
      "pitch": 43,
      "name": "G2",
      "start": 0.3199999928474426,
      "end": 0.4099999964237213,
      "duration": 0.09000000357627869,
      "velocity": 96
    },
    {
      "pitch": 45,
      "name": "A2",
      "start": 0.7400000095367432,
      "end": 1.3200000524520874,
      "duration": 0.5800000429153442,
      "velocity": 114
    },
    {
      "pitch": 46,
      "name": "A#2",
      "start": 1.3200000524520874,
      "end": 1.4800000190734863,
      "duration": 0.15999996662139893,
      "velocity": 114
    },
    {
      "pitch": 48,
      "name": "C3",
      "start": 1.5700000524520874,
      "end": 1.9199999570846558,
      "duration": 0.34999990463256836,
      "velocity": 114
    },
    {
      "pitch": 40,
      "name": "E2",
      "start": 2.0899999141693115,
      "end": 2.450000047683716,
      "duration": 0.3600001335144043,
      "velocity": 117
    },
    {
      "pitch": 43,
      "name": "G2",
      "start": 2.5999999046325684,
      "end": 2.700000047683716,
      "duration": 0.10000014305114746,
      "velocity": 113
    },
    {
      "pitch": 44,
      "name": "G#2",
      "start": 2.700000047683716,
      "end": 2.8299999237060547,
      "duration": 0.12999987602233887,
      "velocity": 114
    },
    {
      "pitch": 43,
      "name": "G2",
      "start": 2.8299999237060547,
      "end": 3.0299999713897705,
      "duration": 0.20000004768371582,
      "velocity": 113
    },
    {
      "pitch": 46,
      "name": "A#2",
      "start": 3.0799999237060547,
      "end": 3.3399999141693115,
      "duration": 0.25999999046325684,
      "velocity": 114
    },
    {
      "pitch": 48,
      "name": "C3",
      "start": 3.4000000953674316,
      "end": 3.6500000953674316,
      "duration": 0.25,
      "velocity": 112
    },
    {
      "pitch": 40,
      "name": "E2",
      "start": 3.950000047683716,
      "end": 4.050000190734863,
      "duration": 0.10000014305114746,
      "velocity": 112
    },
    {
      "pitch": 41,
      "name": "F2",
      "start": 4.050000190734863,
      "end": 4.289999961853027,
      "duration": 0.23999977111816406,
      "velocity": 119
    },
    {
      "pitch": 44,
      "name": "G#2",
      "start": 4.429999828338623,
      "end": 4.760000228881836,
      "duration": 0.3300004005432129,
      "velocity": 105
    },
    {
      "pitch": 46,
      "name": "A#2",
      "start": 4.940000057220459,
      "end": 5.300000190734863,
      "duration": 0.3600001335144043,
      "velocity": 115
    },
    {
      "pitch": 48,
      "name": "C3",
      "start": 5.320000171661377,
      "end": 6.070000171661377,
      "duration": 0.75,
      "velocity": 116
    },
    {
      "pitch": 51,
      "name": "D#3",
      "start": 6.300000190734863,
      "end": 6.610000133514404,
      "duration": 0.309999942779541,
      "velocity": 110
    },
    {
      "pitch": 47,
      "name": "B2",
      "start": 6.860000133514404,
      "end": 7.0,
      "duration": 0.1399998664855957,
      "velocity": 105
    },
    {
      "pitch": 48,
      "name": "C3",
      "start": 7.0,
      "end": 7.269999980926514,
      "duration": 0.26999998092651367,
      "velocity": 112
    },
    {
      "pitch": 49,
      "name": "C#3",
      "start": 7.360000133514404,
      "end": 7.46999979019165,
      "duration": 0.1099996566772461,
      "velocity": 111
    },
    {
      "pitch": 46,
      "name": "A#2",
      "start": 8.329999923706055,
      "end": 8.539999961853027,
      "duration": 0.21000003814697266,
      "velocity": 112
    },
    {
      "pitch": 48,
      "name": "C3",
      "start": 8.569999694824219,
      "end": 8.670000076293945,
      "duration": 0.10000038146972656,
      "velocity": 113
    },
    {
      "pitch": 47,
      "name": "B2",
      "start": 8.670000076293945,
      "end": 8.789999961853027,
      "duration": 0.11999988555908203,
      "velocity": 102
    },
    {
      "pitch": 42,
      "name": "F#2",
      "start": 9.100000381469727,
      "end": 9.300000190734863,
      "duration": 0.19999980926513672,
      "velocity": 116
    },
    {
      "pitch": 45,
      "name": "A2",
      "start": 9.579999923706055,
      "end": 9.670000076293945,
      "duration": 0.09000015258789062,
      "velocity": 111
    },
    {
      "pitch": 44,
      "name": "G#2",
      "start": 9.670000076293945,
      "end": 9.770000457763672,
      "duration": 0.10000038146972656,
      "velocity": 109
    },
    {
      "pitch": 46,
      "name": "A#2",
      "start": 10.050000190734863,
      "end": 10.170000076293945,
      "duration": 0.11999988555908203,
      "velocity": 116
    },
    {
      "pitch": 47,
      "name": "B2",
      "start": 10.399999618530273,
      "end": 10.710000038146973,
      "duration": 0.3100004196166992,
      "velocity": 112
    },
    {
      "pitch": 45,
      "name": "A2",
      "start": 11.289999961853027,
      "end": 11.390000343322754,
      "duration": 0.10000038146972656,
      "velocity": 109
    },
    {
      "pitch": 44,
      "name": "G#2",
      "start": 11.470000267028809,
      "end": 11.680000305175781,
      "duration": 0.21000003814697266,
      "velocity": 100
    },
    {
      "pitch": 44,
      "name": "G#2",
      "start": 11.869999885559082,
      "end": 11.960000038146973,
      "duration": 0.09000015258789062,
      "velocity": 106
    },
    {
      "pitch": 45,
      "name": "A2",
      "start": 11.960000038146973,
      "end": 12.15999984741211,
      "duration": 0.19999980926513672,
      "velocity": 111
    },
    {
      "pitch": 45,
      "name": "A2",
      "start": 12.210000038146973,
      "end": 12.390000343322754,
      "duration": 0.18000030517578125,
      "velocity": 115
    },
    {
      "pitch": 44,
      "name": "G#2",
      "start": 12.390000343322754,
      "end": 12.520000457763672,
      "duration": 0.13000011444091797,
      "velocity": 112
    },
    {
      "pitch": 45,
      "name": "A2",
      "start": 12.520000457763672,
      "end": 12.640000343322754,
      "duration": 0.11999988555908203,
      "velocity": 115
    },
    {
      "pitch": 44,
      "name": "G#2",
      "start": 12.640000343322754,
      "end": 12.8100004196167,
      "duration": 0.1700000762939453,
      "velocity": 110
    },
    {
      "pitch": 44,
      "name": "G#2",
      "start": 13.40999984741211,
      "end": 13.619999885559082,
      "duration": 0.21000003814697266,
      "velocity": 97
    }
  ]
}