{
  "meta": {
    "mode": "voice",
    "engine": "crepe",
    "input": "F:\\audio\\melody_app_industrial\\test-si1.m4a"
  },
  "stats": {
    "raw_notes": 27.0,
    "melody_notes": 27.0,
    "polyphony_ratio": 0.0
  },
  "notes": [
    {
      "pitch": 44,
      "name": "G#2",
      "start": 0.5400000214576721,
      "end": 0.75,
      "duration": 0.20999997854232788,
      "velocity": 112
    },
    {
      "pitch": 47,
      "name": "B2",
      "start": 0.9900000095367432,
      "end": 1.090000033378601,
      "duration": 0.10000002384185791,
      "velocity": 112
    },
    {
      "pitch": 47,
      "name": "B2",
      "start": 1.2200000286102295,
      "end": 1.409999966621399,
      "duration": 0.18999993801116943,
      "velocity": 113
    },
    {
      "pitch": 49,
      "name": "C#3",
      "start": 1.440000057220459,
      "end": 1.5499999523162842,
      "duration": 0.1099998950958252,
      "velocity": 115
    },
    {
      "pitch": 50,
      "name": "D3",
      "start": 1.8200000524520874,
      "end": 1.940000057220459,
      "duration": 0.12000000476837158,
      "velocity": 118
    },
    {
      "pitch": 44,
      "name": "G#2",
      "start": 2.2100000381469727,
      "end": 2.299999952316284,
      "duration": 0.08999991416931152,
      "velocity": 117
    },
    {
      "pitch": 43,
      "name": "G2",
      "start": 2.299999952316284,
      "end": 2.4600000381469727,
      "duration": 0.16000008583068848,
      "velocity": 114
    },
    {
      "pitch": 44,
      "name": "G#2",
      "start": 2.569999933242798,
      "end": 2.6600000858306885,
      "duration": 0.09000015258789062,
      "velocity": 107
    },
    {
      "pitch": 46,
      "name": "A#2",
      "start": 2.8499999046325684,
      "end": 2.9800000190734863,
      "duration": 0.13000011444091797,
      "velocity": 110
    },
    {
      "pitch": 47,
      "name": "B2",
      "start": 2.9800000190734863,
      "end": 3.109999895095825,
      "duration": 0.12999987602233887,
      "velocity": 109
    },
    {
      "pitch": 49,
      "name": "C#3",
      "start": 3.319999933242798,
      "end": 3.5799999237060547,
      "duration": 0.25999999046325684,
      "velocity": 112
    },
    {
      "pitch": 50,
      "name": "D3",
      "start": 3.5799999237060547,
      "end": 3.7899999618530273,
      "duration": 0.21000003814697266,
      "velocity": 116
    },
    {
      "pitch": 51,
      "name": "D#3",
      "start": 3.7899999618530273,
      "end": 3.9000000953674316,
      "duration": 0.1100001335144043,
      "velocity": 117
    },
    {
      "pitch": 44,
      "name": "G#2",
      "start": 4.079999923706055,
      "end": 4.449999809265137,
      "duration": 0.36999988555908203,
      "velocity": 109
    },
    {
      "pitch": 47,
      "name": "B2",
      "start": 4.489999771118164,
      "end": 4.670000076293945,
      "duration": 0.18000030517578125,
      "velocity": 112
    },
    {
      "pitch": 47,
      "name": "B2",
      "start": 4.730000019073486,
      "end": 4.889999866485596,
      "duration": 0.15999984741210938,
      "velocity": 112
    },
    {
      "pitch": 46,
      "name": "A#2",
      "start": 4.889999866485596,
      "end": 4.980000019073486,
      "duration": 0.09000015258789062,
      "velocity": 108
    },
    {
      "pitch": 48,
      "name": "C3",
      "start": 5.150000095367432,
      "end": 5.260000228881836,
      "duration": 0.1100001335144043,
      "velocity": 116
    },
    {
      "pitch": 49,
      "name": "C#3",
      "start": 5.260000228881836,
      "end": 5.389999866485596,
      "duration": 0.12999963760375977,
      "velocity": 114
    },
    {
      "pitch": 50,
      "name": "D3",
      "start": 5.53000020980835,
      "end": 5.639999866485596,
      "duration": 0.1099996566772461,
      "velocity": 113
    },
    {
      "pitch": 51,
      "name": "D#3",
      "start": 5.699999809265137,
      "end": 5.860000133514404,
      "duration": 0.16000032424926758,
      "velocity": 119
    },
    {
      "pitch": 50,
      "name": "D3",
      "start": 5.860000133514404,
      "end": 6.289999961853027,
      "duration": 0.42999982833862305,
      "velocity": 120
    },
    {
      "pitch": 54,
      "name": "F#3",
      "start": 6.510000228881836,
      "end": 6.849999904632568,
      "duration": 0.3399996757507324,
      "velocity": 117
    },
    {
      "pitch": 55,
      "name": "G3",
      "start": 6.849999904632568,
      "end": 6.96999979019165,
      "duration": 0.11999988555908203,
      "velocity": 114
    },
    {
      "pitch": 54,
      "name": "F#3",
      "start": 6.96999979019165,
      "end": 7.090000152587891,
      "duration": 0.12000036239624023,
      "velocity": 117
    },
    {
      "pitch": 50,
      "name": "D3",
      "start": 7.300000190734863,
      "end": 7.480000019073486,
      "duration": 0.17999982833862305,
      "velocity": 117
    },
    {
      "pitch": 50,
      "name": "D3",
      "start": 7.53000020980835,
      "end": 7.659999847412109,
      "duration": 0.12999963760375977,
      "velocity": 114
    }
  ]
}