{
  "meta": {
    "mode": "voice",
    "engine": "pyin",
    "input": "F:\\audio\\melody_app_industrial\\test-hu5.m4a"
  },
  "stats": {
    "raw_notes": 27.0,
    "melody_notes": 27.0,
    "polyphony_ratio": 0.0
  },
  "notes": [
    {
      "pitch": 45,
      "name": "A2",
      "start": 0.2438095211982727,
      "end": 0.3599092960357666,
      "duration": 0.1160997748374939,
      "velocity": 116
    },
    {
      "pitch": 50,
      "name": "D3",
      "start": 0.7198185920715332,
      "end": 0.9171882271766663,
      "duration": 0.19736963510513306,
      "velocity": 125
    },
    {
      "pitch": 53,
      "name": "F3",
      "start": 1.05650794506073,
      "end": 1.265487551689148,
      "duration": 0.20897960662841797,
      "velocity": 125
    },
    {
      "pitch": 55,
      "name": "G3",
      "start": 1.3235374689102173,
      "end": 1.4976871013641357,
      "duration": 0.17414963245391846,
      "velocity": 125
    },
    {
      "pitch": 46,
      "name": "A#2",
      "start": 1.7879364490509033,
      "end": 2.1246259212493896,
      "duration": 0.33668947219848633,
      "velocity": 125
    },
    {
      "pitch": 49,
      "name": "C#3",
      "start": 2.3800454139709473,
      "end": 2.600634813308716,
      "duration": 0.22058939933776855,
      "velocity": 120
    },
    {
      "pitch": 53,
      "name": "F3",
      "start": 2.739954710006714,
      "end": 2.9257142543792725,
      "duration": 0.1857595443725586,
      "velocity": 120
    },
    {
      "pitch": 55,
      "name": "G3",
      "start": 3.006984233856201,
      "end": 3.18113374710083,
      "duration": 0.1741495132446289,
      "velocity": 120
    },
    {
      "pitch": 45,
      "name": "A2",
      "start": 3.5178232192993164,
      "end": 3.7616326808929443,
      "duration": 0.24380946159362793,
      "velocity": 120
    },
    {
      "pitch": 52,
      "name": "E3",
      "start": 4.632380962371826,
      "end": 4.8645806312561035,
      "duration": 0.23219966888427734,
      "velocity": 100
    },
    {
      "pitch": 54,
      "name": "F#3",
      "start": 5.038730144500732,
      "end": 5.25931978225708,
      "duration": 0.22058963775634766,
      "velocity": 125
    },
    {
      "pitch": 55,
      "name": "G3",
      "start": 5.41024923324585,
      "end": 5.700499057769775,
      "duration": 0.2902498245239258,
      "velocity": 125
    },
    {
      "pitch": 57,
      "name": "A3",
      "start": 5.8282084465026855,
      "end": 6.269387722015381,
      "duration": 0.4411792755126953,
      "velocity": 125
    },
    {
      "pitch": 54,
      "name": "F#3",
      "start": 6.466757297515869,
      "end": 6.977596282958984,
      "duration": 0.5108389854431152,
      "velocity": 125
    },
    {
      "pitch": 48,
      "name": "C3",
      "start": 7.592925071716309,
      "end": 7.697414875030518,
      "duration": 0.10448980331420898,
      "velocity": 127
    },
    {
      "pitch": 55,
      "name": "G3",
      "start": 7.987664222717285,
      "end": 8.150203704833984,
      "duration": 0.16253948211669922,
      "velocity": 109
    },
    {
      "pitch": 46,
      "name": "A#2",
      "start": 8.59138298034668,
      "end": 8.777142524719238,
      "duration": 0.1857595443725586,
      "velocity": 120
    },
    {
      "pitch": 49,
      "name": "C#3",
      "start": 9.125442504882812,
      "end": 9.380861282348633,
      "duration": 0.2554187774658203,
      "velocity": 113
    },
    {
      "pitch": 52,
      "name": "E3",
      "start": 9.531791687011719,
      "end": 9.740771293640137,
      "duration": 0.20897960662841797,
      "velocity": 100
    },
    {
      "pitch": 54,
      "name": "F#3",
      "start": 9.787210464477539,
      "end": 9.926530838012695,
      "duration": 0.13932037353515625,
      "velocity": 109
    },
    {
      "pitch": 46,
      "name": "A#2",
      "start": 10.332880020141602,
      "end": 10.599908828735352,
      "duration": 0.26702880859375,
      "velocity": 120
    },
    {
      "pitch": 49,
      "name": "C#3",
      "start": 10.936598777770996,
      "end": 11.168798446655273,
      "duration": 0.23219966888427734,
      "velocity": 120
    },
    {
      "pitch": 51,
      "name": "D#3",
      "start": 11.354557991027832,
      "end": 11.55192756652832,
      "duration": 0.19736957550048828,
      "velocity": 104
    },
    {
      "pitch": 50,
      "name": "D3",
      "start": 11.737687110900879,
      "end": 12.027936935424805,
      "duration": 0.2902498245239258,
      "velocity": 120
    },
    {
      "pitch": 51,
      "name": "D#3",
      "start": 12.236916542053223,
      "end": 12.329795837402344,
      "duration": 0.0928792953491211,
      "velocity": 116
    },
    {
      "pitch": 49,
      "name": "C#3",
      "start": 12.6316556930542,
      "end": 12.933514595031738,
      "duration": 0.30185890197753906,
      "velocity": 122
    },
    {
      "pitch": 49,
      "name": "C#3",
      "start": 13.026394844055176,
      "end": 13.200544357299805,
      "duration": 0.1741495132446289,
      "velocity": 120
    }
  ]
}