{
  "meta": {
    "mode": "voice",
    "engine": "pyin",
    "input": "F:\\audio\\melody_app_industrial\\test-si1.m4a"
  },
  "stats": {
    "raw_notes": 23.0,
    "melody_notes": 23.0,
    "polyphony_ratio": 0.0
  },
  "notes": [
    {
      "pitch": 47,
      "name": "B2",
      "start": 1.0797278881072998,
      "end": 1.1958277225494385,
      "duration": 0.11609983444213867,
      "velocity": 122
    },
    {
      "pitch": 47,
      "name": "B2",
      "start": 1.2538775205612183,
      "end": 1.4280271530151367,
      "duration": 0.17414963245391846,
      "velocity": 125
    },
    {
      "pitch": 49,
      "name": "C#3",
      "start": 1.474467158317566,
      "end": 1.5673469305038452,
      "duration": 0.0928797721862793,
      "velocity": 87
    },
    {
      "pitch": 48,
      "name": "C3",
      "start": 1.5673469305038452,
      "end": 1.7182766199111938,
      "duration": 0.15092968940734863,
      "velocity": 120
    },
    {
      "pitch": 50,
      "name": "D3",
      "start": 1.8459863662719727,
      "end": 1.9736961126327515,
      "duration": 0.1277097463607788,
      "velocity": 125
    },
    {
      "pitch": 43,
      "name": "G2",
      "start": 2.321995496749878,
      "end": 2.4845352172851562,
      "duration": 0.16253972053527832,
      "velocity": 109
    },
    {
      "pitch": 44,
      "name": "G#2",
      "start": 2.5890250205993652,
      "end": 2.6819047927856445,
      "duration": 0.0928797721862793,
      "velocity": 104
    },
    {
      "pitch": 46,
      "name": "A#2",
      "start": 2.8908843994140625,
      "end": 3.006984233856201,
      "duration": 0.11609983444213867,
      "velocity": 127
    },
    {
      "pitch": 47,
      "name": "B2",
      "start": 3.006984233856201,
      "end": 3.1346938610076904,
      "duration": 0.12770962715148926,
      "velocity": 127
    },
    {
      "pitch": 49,
      "name": "C#3",
      "start": 3.3436734676361084,
      "end": 3.5874829292297363,
      "duration": 0.24380946159362793,
      "velocity": 127
    },
    {
      "pitch": 50,
      "name": "D3",
      "start": 3.599092960357666,
      "end": 3.8545124530792236,
      "duration": 0.2554194927215576,
      "velocity": 125
    },
    {
      "pitch": 44,
      "name": "G#2",
      "start": 4.121541976928711,
      "end": 4.469841480255127,
      "duration": 0.348299503326416,
      "velocity": 125
    },
    {
      "pitch": 47,
      "name": "B2",
      "start": 4.527891159057617,
      "end": 4.911020278930664,
      "duration": 0.3831291198730469,
      "velocity": 126
    },
    {
      "pitch": 48,
      "name": "C3",
      "start": 5.1780500411987305,
      "end": 5.2825398445129395,
      "duration": 0.10448980331420898,
      "velocity": 127
    },
    {
      "pitch": 49,
      "name": "C#3",
      "start": 5.2825398445129395,
      "end": 5.41024923324585,
      "duration": 0.12770938873291016,
      "velocity": 127
    },
    {
      "pitch": 48,
      "name": "C3",
      "start": 5.41024923324585,
      "end": 5.514739036560059,
      "duration": 0.10448980331420898,
      "velocity": 125
    },
    {
      "pitch": 50,
      "name": "D3",
      "start": 5.561179161071777,
      "end": 5.735328674316406,
      "duration": 0.1741495132446289,
      "velocity": 120
    },
    {
      "pitch": 51,
      "name": "D#3",
      "start": 5.735328674316406,
      "end": 5.874648571014404,
      "duration": 0.13931989669799805,
      "velocity": 126
    },
    {
      "pitch": 50,
      "name": "D3",
      "start": 5.874648571014404,
      "end": 6.30421781539917,
      "duration": 0.4295692443847656,
      "velocity": 127
    },
    {
      "pitch": 54,
      "name": "F#3",
      "start": 6.524807453155518,
      "end": 6.861496448516846,
      "duration": 0.3366889953613281,
      "velocity": 127
    },
    {
      "pitch": 55,
      "name": "G3",
      "start": 6.861496448516846,
      "end": 6.989206314086914,
      "duration": 0.12770986557006836,
      "velocity": 127
    },
    {
      "pitch": 54,
      "name": "F#3",
      "start": 6.989206314086914,
      "end": 7.116916179656982,
      "duration": 0.12770986557006836,
      "velocity": 127
    },
    {
      "pitch": 50,
      "name": "D3",
      "start": 7.314285755157471,
      "end": 7.685804843902588,
      "duration": 0.3715190887451172,
      "velocity": 127
    }
  ]
}